<?xml version="1.0" encoding="utf-8"?>
<!-- Svg Vector Icons : http://www.onlinewebfonts.com/icon -->
<!DOCTYPE svg PUBLIC "-//W3C//DTD SVG 1.1//EN" "http://www.w3.org/Graphics/SVG/1.1/DTD/svg11.dtd">
<svg version="1.1" xmlns="http://www.w3.org/2000/svg" xmlns:xlink="http://www.w3.org/1999/xlink" x="0px" y="0px" viewBox="0 0 1000 1000" enable-background="new 0 0 1000 1000" xml:space="preserve">
<metadata> Svg Vector Icons : http://www.onlinewebfonts.com/icon </metadata>
<g><path d="M168.1,770h243.1l-21.3-40H168.1V770L168.1,770z M772.9,890v20c0,22.1-18,40-40.3,40h-625c-22.3,0-40.3-17.9-40.3-40V90c0-22.1,18-40,40.3-40H531v180c0,44.2,36.1,80,80.6,80h161.3v91.2l40.3,17.5V290l-7.1-7.1l1.2-7.1L558.5,10H107.6C63.1,10,27,45.8,27,90v820c0,44.2,36.1,80,80.6,80h625c44.5,0,80.6-35.8,80.6-80v-28.7C813.2,853.2,772.9,890,772.9,890L772.9,890z M571.3,83.2L747.8,270H611.6c-22.3,0-40.3-17.9-40.3-40V83.2L571.3,83.2z M168.1,490h302.4v-40H168.1V490z M168.1,350h302.4v-40H168.1V350z M168.1,590v40h202.6l20.2-40H168.1L168.1,590z M968.6,486.8l-31.8-31.1c-5.9-5.7-15.3-5.7-21.2,0L614.7,751L489,627.2c-5.9-5.7-15.4-5.7-21.2,0l-31.8,31c-5.9,5.7-5.9,15,0,20.7l135.9,133.8c0.1,0.2,0.2,0.3,0.3,0.5l22,21.5l5.1,5l0,0l4.7,4.6c5.8,5.7,15.3,5.7,21.2,0l343.5-336.8C974.5,501.8,974.5,492.5,968.6,486.8L968.6,486.8z"/></g>
</svg>