<?xml version="1.0" encoding="utf-8"?>
<!-- Svg Vector Icons : http://www.onlinewebfonts.com/icon -->
<!DOCTYPE svg PUBLIC "-//W3C//DTD SVG 1.1//EN" "http://www.w3.org/Graphics/SVG/1.1/DTD/svg11.dtd">
<svg version="1.1" xmlns="http://www.w3.org/2000/svg" xmlns:xlink="http://www.w3.org/1999/xlink" x="0px" y="0px" viewBox="0 0 1000 1000" enable-background="new 0 0 1000 1000" xml:space="preserve">
<metadata> Svg Vector Icons : http://www.onlinewebfonts.com/icon </metadata>
<g><path d="M893.2,418.3c-62.5-62.5-145.5-96.8-233.8-96.8c-88.3,0-171.3,34.4-233.8,96.8c-62.5,62.4-96.8,145.5-96.8,233.8s34.4,171.4,96.8,233.8c62.5,62.5,145.5,96.8,233.8,96.8c88.3,0,171.4-34.4,233.8-96.8c62.5-62.5,96.8-145.5,96.8-233.8C990,563.8,955.6,480.8,893.2,418.3z M659.4,943.7c-160.8,0-291.6-130.8-291.6-291.6s130.8-291.6,291.6-291.6c160.8,0,291.6,130.8,291.6,291.6C951,812.9,820.2,943.7,659.4,943.7z"/><path d="M348.2,943.7H55.3c-3.4,0-6.3-2.9-6.3-6.3V62.6c0-3.4,2.9-6.3,6.3-6.3h657.8c3.4,0,6.3,2.9,6.3,6.3v143.8c0,10.8,8.7,19.5,19.5,19.5c10.8,0,19.5-8.7,19.5-19.5V62.6c0-25-20.3-45.3-45.3-45.3H55.3c-25,0-45.3,20.3-45.3,45.3v874.9c0,25,20.3,45.3,45.3,45.3h292.9c10.8,0,19.5-8.7,19.5-19.5C367.7,952.5,359,943.7,348.2,943.7z"/><path d="M643.1,228.5c0-10.8-8.7-19.5-19.5-19.5H142.4c-10.8,0-19.5,8.7-19.5,19.5c0,10.8,8.7,19.5,19.5,19.5h481.2C634.4,248,643.1,239.2,643.1,228.5z"/><path d="M370.4,418.5c0-10.8-8.7-19.5-19.5-19.5H142.4c-10.8,0-19.5,8.7-19.5,19.5c0,10.8,8.7,19.5,19.5,19.5h208.5C361.7,438,370.4,429.3,370.4,418.5z"/><path d="M272.5,589.1h-130c-10.8,0-19.5,8.7-19.5,19.5c0,10.8,8.7,19.5,19.5,19.5h130c10.8,0,19.5-8.7,19.5-19.5C292,597.8,283.2,589.1,272.5,589.1z"/><path d="M272.5,779.1h-130c-10.8,0-19.5,8.7-19.5,19.5c0,10.8,8.7,19.5,19.5,19.5h130c10.8,0,19.5-8.7,19.5-19.5C292,787.9,283.2,779.1,272.5,779.1z"/><path d="M530.8,489.5c0,79.7,63.5,138,100.5,165.2c-37,27.2-100.5,85.5-100.5,165.2v19.5h271.6v-19.5c0-79.7-63.5-138-100.5-165.2c37-27.2,100.5-85.5,100.5-165.2V470H530.8V489.5z M761.7,800.4h-190c11.1-61.5,71.3-106.9,95-122.7C690.4,693.5,750.6,738.9,761.7,800.4z M761.7,509c-11.1,61.5-71.4,106.9-95,122.7c-23.7-15.7-84-61-95-122.7H761.7z"/></g>
</svg>