<svg version="1.2" xmlns="http://www.w3.org/2000/svg" viewBox="0 0 32 32" width="32" height="32">
	<title>video-svgrepo-com-svg</title>
	<style>
		.s0 { fill: #000000 } 
	</style>
	<g id="icomoon-ignore">
	</g>
	<path id="Layer" fill-rule="evenodd" class="s0" d="m30.9 9.1v13.8h-2.6l-7-4.2v4.8c0 0.8-0.7 1.6-1.6 1.6h-17c-0.9 0-1.6-0.8-1.6-1.6v-15c0-0.8 0.7-1.6 1.6-1.6h17c0.9 0 1.6 0.8 1.6 1.6v4.7l6.9-4.1c0 0 2.7 0 2.7 0zm-10.6-0.6c0-0.3-0.3-0.5-0.6-0.5h-17c-0.3 0-0.6 0.2-0.6 0.5v15c0 0.3 0.3 0.5 0.6 0.5h17c0.3 0 0.6-0.2 0.6-0.5zm9.6 1.6h-1.4l-7.2 4.3v3l7.3 4.4h1.3c0 0 0-11.7 0-11.7z"/>
	<path id="Layer" fill-rule="evenodd" class="s0" d="m13.3 10.5q1.1 0.4 1.9 1.3 0.9 0.8 1.3 1.9 0.5 1.1 0.5 2.3c0 2.4-1.5 4.6-3.7 5.5-2.2 1-4.8 0.5-6.5-1.3-1.8-1.7-2.3-4.3-1.3-6.5 0.9-2.2 3.1-3.7 5.5-3.7q1.2 0 2.3 0.5zm-0.3 10.3q0.9-0.4 1.7-1.1 0.7-0.8 1.1-1.7 0.4-1 0.4-2c0-2.1-1.3-4-3.2-4.8-2-0.8-4.2-0.4-5.7 1.1-1.5 1.5-1.9 3.7-1.1 5.7 0.8 1.9 2.7 3.2 4.8 3.2q1 0 2-0.4z"/>
	<path id="Layer" class="s0" d="m11.2 12.1q0 0.1 0.1 0.1 0 0.1 0.1 0.1 0 0.1 0 0.2v3.5q0 0.1 0 0.2-0.1 0-0.1 0.1-0.1 0-0.1 0.1-0.1 0-0.2 0h-2.8q-0.2 0-0.3-0.1-0.1-0.1-0.1-0.3 0-0.2 0.1-0.3 0.1-0.1 0.3-0.1h2.4v-3.1q0-0.1 0-0.2 0.1 0 0.1-0.1 0.1 0 0.1-0.1 0.1 0 0.2 0 0.1 0 0.2 0z"/>
</svg>